# xmcd
#
# Track frame offsets: 
#        150
#        25940
#        59573
#        81927
#        109657
#        128854
#        154799
#        195060
#        213143
#        231425
#
# Disc length: 3445 seconds
#
# Revision: 6
# Processed by: cddbd v1.5.2PL0 Copyright (c) Steve Scherf et al.
# Submitted via: ExactAudioCopy v1.0b3
#
DISCID=7e0d730a
DTITLE=张学友 - 爱与交响曲
DYEAR=1996
DGENRE=Pop
TTITLE0=刹那爱
TTITLE1=任性
TTITLE2=岁月流情
TTITLE3=生命的插曲
TTITLE4=过敏世界
TTITLE5=你的名字 我的姓氏
TTITLE6=莫等待 , 相识非偶然 , 大丈夫
TTITLE7=我哭了
TTITLE8=拥有
TTITLE9=祝福
EXTD=YEAR: 1996
EXTT0=
EXTT1=
EXTT2=
EXTT3=
EXTT4=
EXTT5=
EXTT6=
EXTT7=
EXTT8=
EXTT9=
PLAYORDER=
